<svg width="123" height="123" viewBox="0 0 123 123" fill="none" xmlns="http://www.w3.org/2000/svg">
<g clip-path="url(#clip0_6_12)">
<path fill-rule="evenodd" clip-rule="evenodd" d="M20.75 63.87L24.47 63.64C24.55 64.24 24.71 64.7 24.96 65.02C25.36 65.53 25.94 65.79 26.69 65.79C27.25 65.79 27.68 65.66 27.98 65.4C28.28 65.14 28.43 64.83 28.43 64.49C28.43 64.16 28.29 63.87 28 63.61C27.71 63.35 27.05 63.11 26 62.87C24.28 62.49 23.06 61.97 22.33 61.33C21.59 60.69 21.22 59.88 21.22 58.89C21.22 58.24 21.41 57.63 21.79 57.05C22.17 56.47 22.73 56.01 23.49 55.68C24.25 55.35 25.29 55.18 26.61 55.18C28.23 55.18 29.47 55.48 30.32 56.09C31.17 56.69 31.68 57.65 31.84 58.97L28.15 59.19C28.05 58.61 27.85 58.2 27.53 57.94C27.21 57.68 26.78 57.55 26.23 57.55C25.78 57.55 25.43 57.65 25.2 57.84C24.97 58.03 24.85 58.27 24.85 58.55C24.85 58.75 24.94 58.93 25.13 59.09C25.31 59.26 25.75 59.41 26.44 59.56C28.15 59.93 29.38 60.3 30.12 60.68C30.86 61.06 31.4 61.52 31.74 62.09C32.08 62.65 32.25 63.27 32.25 63.97C32.25 64.78 32.03 65.53 31.58 66.22C31.13 66.9 30.5 67.43 29.69 67.78C28.88 68.13 27.87 68.31 26.64 68.31C24.48 68.31 22.99 67.89 22.16 67.06C21.33 66.2 20.86 65.15 20.75 63.87ZM62.63 84.95V117.4H74.15V84.95H62.63ZM58.45 117.41V84.95H47.03V117.4H58.45V117.41ZM60.74 3.33C69.5 -2.73 70.16 9.26 78.76 1.78V14C70.55 21.38 68.78 9.46 60.74 15.52V3.33ZM58.58 0C59.5 0 60.25 0.75 60.25 1.67C60.25 2.28 59.92 2.82 59.43 3.11H59.51V22.17H84.94V39.49H112.09V122.85C77.73 122.85 43.37 122.88 9 122.88V39.49H36.18V22.18H57.66V3.11H57.74C57.25 2.82 56.92 2.28 56.92 1.67C56.91 0.75 57.65 0 58.58 0ZM59.14 30.52C59.14 29.93 59.62 29.45 60.21 29.45C60.8 29.45 61.28 29.93 61.28 30.52V34.65H64.34C64.93 34.65 65.41 35.13 65.41 35.72C65.41 36.31 64.93 36.79 64.34 36.79H60.21C59.62 36.79 59.14 36.31 59.14 35.72V30.52ZM60.54 27.66C64.56 27.66 67.82 30.92 67.82 34.94C67.82 38.96 64.56 42.22 60.54 42.22C56.52 42.22 53.26 38.96 53.26 34.94C53.26 30.92 56.52 27.66 60.54 27.66ZM14.72 48.49H107.04V73.35H14.72V48.49ZM20.06 94.59H33.65V110H20.06V94.59ZM87.42 94.59H101.01V110H87.42V94.59ZM90.96 55.38H94.88V64.95H101.01V68.07H90.96V55.38ZM75.97 61.73C75.97 59.66 76.55 58.05 77.7 56.9C78.85 55.75 80.46 55.17 82.52 55.17C84.63 55.17 86.26 55.74 87.4 56.87C88.54 58 89.11 59.59 89.11 61.63C89.11 63.11 88.86 64.33 88.36 65.27C87.86 66.22 87.14 66.96 86.2 67.48C85.26 68.01 84.08 68.27 82.67 68.27C81.24 68.27 80.06 68.04 79.12 67.59C78.18 67.13 77.42 66.41 76.84 65.43C76.26 64.45 75.97 63.21 75.97 61.73ZM79.88 61.74C79.88 63.02 80.12 63.94 80.59 64.5C81.07 65.06 81.72 65.34 82.54 65.34C83.38 65.34 84.04 65.07 84.5 64.52C84.96 63.97 85.19 62.99 85.19 61.57C85.19 60.38 84.95 59.51 84.47 58.96C83.99 58.41 83.33 58.13 82.51 58.13C81.72 58.13 81.08 58.41 80.6 58.97C80.12 59.52 79.88 60.45 79.88 61.74ZM61.47 61.73C61.47 59.66 62.05 58.05 63.2 56.9C64.35 55.75 65.96 55.17 68.02 55.17C70.13 55.17 71.76 55.74 72.9 56.87C74.04 58 74.61 59.59 74.61 61.63C74.61 63.11 74.36 64.33 73.86 65.27C73.36 66.22 72.64 66.96 71.7 67.48C70.75 68.01 69.58 68.27 68.17 68.27C66.74 68.27 65.56 68.04 64.62 67.59C63.68 67.13 62.92 66.41 62.34 65.43C61.76 64.45 61.47 63.21 61.47 61.73ZM65.39 61.74C65.39 63.02 65.63 63.94 66.1 64.5C66.58 65.06 67.23 65.34 68.05 65.34C68.89 65.34 69.55 65.07 70.01 64.52C70.47 63.97 70.7 62.99 70.7 61.57C70.7 60.38 70.46 59.51 69.98 58.96C69.5 58.41 68.84 58.13 68.02 58.13C67.23 58.13 66.59 58.41 66.11 58.97C65.63 59.52 65.39 60.45 65.39 61.74ZM47.49 55.38H51.41V59.81H55.7V55.38H59.63V68.06H55.69V62.92H51.4V68.06H47.49V55.38ZM42.41 62.87L45.85 63.91C45.62 64.87 45.26 65.68 44.76 66.32C44.26 66.97 43.65 67.45 42.91 67.78C42.17 68.11 41.24 68.27 40.1 68.27C38.72 68.27 37.59 68.07 36.72 67.67C35.85 67.27 35.09 66.56 34.46 65.56C33.83 64.55 33.51 63.26 33.51 61.69C33.51 59.59 34.07 57.98 35.18 56.85C36.3 55.72 37.88 55.16 39.92 55.16C41.52 55.16 42.78 55.48 43.69 56.13C44.6 56.78 45.28 57.77 45.73 59.11L42.28 59.87C42.16 59.49 42.03 59.21 41.9 59.03C41.68 58.73 41.41 58.5 41.09 58.34C40.77 58.18 40.42 58.1 40.02 58.1C39.13 58.1 38.45 58.46 37.97 59.17C37.61 59.7 37.43 60.53 37.43 61.66C37.43 63.07 37.64 64.03 38.07 64.55C38.5 65.07 39.1 65.33 39.87 65.33C40.62 65.33 41.19 65.12 41.57 64.7C41.96 64.28 42.23 63.67 42.41 62.87Z" fill="#EE671D"/>
</g>
<defs>
<clipPath id="clip0_6_12">
<rect width="122.88" height="122.88" fill="white"/>
</clipPath>
</defs>
</svg>
